<svg width="871" height="609" viewBox="0 0 871 609" fill="none" xmlns="http://www.w3.org/2000/svg">
<path fill-rule="evenodd" clip-rule="evenodd" d="M456.717 60.4385C422.1 60.4385 394.882 87.5968 394.882 120.075C394.882 134.003 383.492 145.294 369.441 145.294C355.39 145.294 344 134.003 344 120.075C344 58.8239 394.932 10 456.717 10C518.502 10 569.434 58.8239 569.434 120.075C569.434 152.5 554.474 174.347 537.989 191.476C531.906 197.797 525.05 204.033 518.769 209.746C517.044 211.316 515.361 212.846 513.751 214.328C507.824 219.779 502.296 225.064 497.204 230.647C500.669 237.286 507.892 247.021 519.484 259.744C542.339 284.829 577.452 316.475 617.985 350.597C658.319 384.552 703.171 420.256 745.076 453.405C750.888 458.003 756.649 462.555 762.335 467.049C797.46 494.808 829.752 520.327 853.93 540.476C864.685 549.439 866.074 565.348 857.032 576.009C847.99 586.67 831.942 588.047 821.187 579.084C797.562 559.396 765.887 534.363 730.683 506.541C724.988 502.04 719.2 497.465 713.338 492.829C671.438 459.684 626.038 423.55 585.048 389.042C544.255 354.701 506.968 321.259 481.723 293.551C469.27 279.883 458.518 266.298 452.001 253.802C448.751 247.572 445.749 240.115 444.923 232.058C444.044 223.477 445.623 213.226 452.871 204.418C461.542 193.879 470.816 185.012 479.142 177.354C481.251 175.414 483.257 173.588 485.175 171.842C491.204 166.354 496.369 161.652 501.173 156.659C512.865 144.511 518.552 134.514 518.552 120.075C518.552 87.5968 491.334 60.4385 456.717 60.4385Z" fill="white"/>
<path fill-rule="evenodd" clip-rule="evenodd" d="M399.905 288.687C408.895 299.224 407.815 315.207 397.493 324.385L109.064 578.777C98.7416 587.955 83.0857 586.853 74.0955 576.315C65.1052 565.778 66.1849 549.795 76.5071 540.617L364.936 286.225C375.258 277.047 390.914 278.149 399.905 288.687Z" fill="white"/>
<path fill-rule="evenodd" clip-rule="evenodd" d="M190 456H741V504H190V456Z" fill="white"/>
</svg>
