<svg width="29" height="29" viewBox="0 0 29 29" fill="none" xmlns="http://www.w3.org/2000/svg">
<g clip-path="url(#clip0_10_933)">
<rect width="29" height="29" rx="6.4467" fill="white"/>
<g clip-path="url(#clip1_10_933)">
<rect width="29" height="29" fill="white"/>
<rect width="29" height="29" fill="white"/>
<rect width="29" height="29" fill="#4000FF"/>
<path fill-rule="evenodd" clip-rule="evenodd" d="M14.3787 6.72433C13.3983 6.72433 12.6275 7.49346 12.6275 8.41325C12.6275 8.8077 12.3049 9.12747 11.907 9.12747C11.5091 9.12747 11.1865 8.8077 11.1865 8.41325C11.1865 6.67861 12.6289 5.2959 14.3787 5.2959C16.1285 5.2959 17.5709 6.67861 17.5709 8.41325C17.5709 9.33153 17.1472 9.95026 16.6804 10.4353C16.5081 10.6144 16.3139 10.791 16.136 10.9528C16.0872 10.9972 16.0395 11.0406 15.9939 11.0825C15.8261 11.2369 15.6695 11.3866 15.5253 11.5447C15.6234 11.7327 15.828 12.0084 16.1563 12.3687C16.8035 13.0791 17.798 13.9754 18.9459 14.9417C20.0881 15.9033 21.3584 16.9145 22.5451 17.8533C22.7097 17.9835 22.8729 18.1124 23.0339 18.2397C24.0287 19.0258 24.9432 19.7485 25.6279 20.3192C25.9325 20.573 25.9718 21.0235 25.7157 21.3254C25.4597 21.6274 25.0052 21.6664 24.7006 21.4125C24.0315 20.855 23.1345 20.146 22.1375 19.3581C21.9762 19.2306 21.8123 19.1011 21.6463 18.9698C20.4597 18.0311 19.1739 17.0078 18.0131 16.0305C16.8578 15.058 15.8018 14.1109 15.0869 13.3262C14.7342 12.9391 14.4297 12.5543 14.2451 12.2005C14.1531 12.024 14.0681 11.8128 14.0447 11.5847C14.0198 11.3416 14.0645 11.0513 14.2698 10.8019C14.5154 10.5034 14.778 10.2523 15.0138 10.0354C15.0735 9.98047 15.1303 9.92876 15.1846 9.87931C15.3554 9.72388 15.5017 9.59072 15.6377 9.44934C15.9688 9.1053 16.1299 8.82218 16.1299 8.41325C16.1299 7.49346 15.3591 6.72433 14.3787 6.72433Z" fill="white"/>
<path fill-rule="evenodd" clip-rule="evenodd" d="M12.7698 13.1884C13.0244 13.4868 12.9938 13.9394 12.7015 14.1994L4.53305 21.4039C4.24073 21.6638 3.79735 21.6326 3.54274 21.3341C3.28814 21.0357 3.31871 20.5831 3.61104 20.3231L11.7794 13.1187C12.0718 12.8587 12.5151 12.89 12.7698 13.1884Z" fill="white"/>
<path fill-rule="evenodd" clip-rule="evenodd" d="M6.8252 17.9268H22.4297V19.2861H6.8252V17.9268Z" fill="white"/>
</g>
</g>
<defs>
<clipPath id="clip0_10_933">
<rect width="29" height="29" rx="6.4467" fill="white"/>
</clipPath>
<clipPath id="clip1_10_933">
<rect width="29" height="29" fill="white"/>
</clipPath>
</defs>
</svg>
