<svg width="1024" height="1024" viewBox="0 0 1024 1024" fill="none" xmlns="http://www.w3.org/2000/svg">
<g clip-path="url(#clip0_1_2)">
<g opacity="0.75">
<path fill-rule="evenodd" clip-rule="evenodd" d="M501.316 178.47C456.942 178.47 422.054 215.529 422.054 259.846C422.054 278.851 407.453 294.258 389.442 294.258C371.431 294.258 356.831 278.851 356.831 259.846C356.831 176.267 422.117 109.645 501.316 109.645C580.515 109.645 645.802 176.267 645.802 259.846C645.802 304.091 626.624 333.902 605.494 357.275C597.696 365.9 588.907 374.41 580.857 382.206C578.645 384.348 576.489 386.436 574.424 388.457C566.827 395.896 559.74 403.107 553.214 410.726C557.655 419.784 566.914 433.068 581.773 450.429C611.07 484.658 656.079 527.84 708.035 574.401C759.738 620.734 817.231 669.453 870.946 714.685C878.397 720.959 885.781 727.171 893.07 733.303C938.094 771.181 979.488 806.003 1010.48 833.497C1024.27 845.727 1026.05 867.435 1014.46 881.983C1002.87 896.53 982.294 898.409 968.508 886.179C938.224 859.313 897.623 825.155 852.497 787.192C845.196 781.049 837.777 774.807 830.264 768.481C776.554 723.253 718.359 673.947 665.815 626.861C613.526 580.001 565.73 534.369 533.369 496.56C517.406 477.909 503.624 459.372 495.27 442.321C491.105 433.819 487.256 423.645 486.198 412.651C485.071 400.941 487.096 386.954 496.386 374.935C507.501 360.555 519.388 348.455 530.061 338.005C532.765 335.358 535.336 332.866 537.795 330.483C545.522 322.995 552.143 316.579 558.302 309.767C573.288 293.19 580.579 279.549 580.579 259.846C580.579 215.529 545.69 178.47 501.316 178.47Z" fill="white"/>
<path fill-rule="evenodd" clip-rule="evenodd" d="M428.491 489.922C440.016 504.301 438.632 526.11 425.4 538.633L55.6799 885.76C42.4485 898.284 22.3802 896.78 10.8561 882.401C-0.667953 868.022 0.716067 846.213 13.9474 833.69L383.668 486.563C396.899 474.039 416.967 475.543 428.491 489.922Z" fill="white"/>
<path fill-rule="evenodd" clip-rule="evenodd" d="M159.427 718.227H865.722V783.724H159.427V718.227Z" fill="white"/>
</g>
</g>
<defs>
<clipPath id="clip0_1_2">
<rect width="1024" height="1024" fill="white"/>
</clipPath>
</defs>
</svg>
