<svg xmlns="http://www.w3.org/2000/svg" viewBox="0 0 32 33">
  <path 
    fill-rule="evenodd" 
    d="M4.44409 2.2C2.51023 2.2 0.94409 3.76614 0.94409 5.7V27C0.94409 28.9339 2.51023 30.5 4.44409 30.5H27.556C29.4899 30.5 31.056 28.9339 31.056 27V5.7C31.056 3.76614 29.4899 2.2 27.556 2.2H4.44409Z 

    M15.498 8.76125C14.4786 8.76125 13.6771 9.54454 13.6771 10.48125C13.6771 10.88296 13.3417 11.2086 12.9279 11.2086C12.5141 11.2086 12.1787 10.88296 12.1787 10.48125C12.1787 8.71468 13.6786 7.30652 15.498 7.30652C17.3175 7.30652 18.8173 8.71468 18.8173 10.48125C18.8173 11.4164 18.3768 12.0466 17.8913 12.5406C17.7122 12.7229 17.5103 12.9028 17.3253 13.0675C17.2745 13.1128 17.225 13.1569 17.1776 13.1997C17.003 13.3569 16.8402 13.5093 16.6903 13.6703C16.7923 13.8618 17.005 14.1426 17.3464 14.5095C18.0194 15.233 19.0534 16.1458 20.247 17.1299C21.4348 18.1092 22.7556 19.139 23.9896 20.095C24.1608 20.2276 24.3305 20.3589 24.4979 20.4886C25.5323 21.2892 26.4832 22.0252 27.1952 22.6063C27.5119 22.8648 27.5528 23.3236 27.2865 23.6311C27.0203 23.9386 26.5477 23.9783 26.231 23.7198C25.5353 23.152 24.6025 22.43 23.5658 21.6276C23.3981 21.4977 23.2276 21.3658 23.055 21.2321C21.8211 20.2761 20.4842 19.234 19.2771 18.2387C18.0758 17.2483 16.9778 16.2837 16.2344 15.4846C15.8677 15.0904 15.551 14.6986 15.3591 14.3382C15.2634 14.1585 15.175 13.9434 15.1507 13.711C15.1248 13.4635 15.1713 13.1679 15.3848 12.9139C15.6401 12.6099 15.9132 12.3542 16.1584 12.1333C16.2205 12.0773 16.2796 12.0247 16.3361 11.9743C16.5136 11.816 16.6657 11.6804 16.8072 11.5364C17.1515 11.186 17.3189 10.89771 17.3189 10.48125C17.3189 9.54454 16.5174 8.76125 15.498 8.76125Z

    M14.3876 14.798C14.6523 15.102 14.6205 15.5631 14.3166 15.8278L5.26851 23.711C4.96462 23.9758 4.5037 23.944 4.23902 23.64C3.97435 23.336 4.00613 22.875 4.31002 22.6102L13.3581 14.727C13.662 14.4622 14.1229 14.494 14.3876 14.798Z

    M9.35 20.1532
    L21.666 20.1532  
    L23.47 21.5547
    L7.74 21.5547
    Z"/>
</svg>
