<svg xmlns="http://www.w3.org/2000/svg" viewBox="0 0 32 33">
  <path 
    fill-rule="evenodd" 
    d="M13.0871 1.45492C14.8896 0.44927 17.1105 0.44927 18.913 1.45492L27.893 6.46488C29.6956 7.47053 30.806 9.32905 30.806 11.3404V21.3603C30.806 23.3716 29.6956 25.2301 27.893 26.2357L18.913 31.2457C17.1105 32.2514 14.8896 32.2514 13.0871 31.2457L4.10708 26.2357C2.30452 25.2301 1.19409 23.3716 1.19409 21.3603V11.3404C1.19409 9.32905 2.30452 7.47053 4.10708 6.46488L13.0871 1.45492Z 

    M15.498 7.76125C14.4786 7.76125 13.6771 8.54454 13.6771 9.48125C13.6771 9.88296 13.3417 10.2086 12.9279 10.2086C12.5141 10.2086 12.1787 9.88296 12.1787 9.48125C12.1787 7.71468 13.6786 6.30652 15.498 6.30652C17.3175 6.30652 18.8173 7.71468 18.8173 9.48125C18.8173 10.4164 18.3768 11.0466 17.8913 11.5406C17.7122 11.7229 17.5103 11.9028 17.3253 12.0675C17.2745 12.1128 17.225 12.1569 17.1776 12.1997C17.003 12.3569 16.8402 12.5093 16.6903 12.6703C16.7923 12.8618 17.005 13.1426 17.3464 13.5095C18.0194 14.233 19.0534 15.1458 20.247 16.1299C21.4348 17.1092 22.7556 18.139 23.9896 19.095C24.1608 19.2276 24.3305 19.3589 24.4979 19.4886C25.5323 20.2892 26.4832 21.0252 27.1952 21.6063C27.5119 21.8648 27.5528 22.3236 27.2865 22.6311C27.0203 22.9386 26.5477 22.9783 26.231 22.7198C25.5353 22.152 24.6025 21.43 23.5658 20.6276C23.3981 20.4977 23.2276 20.3658 23.055 20.2321C21.8211 19.2761 20.4842 18.234 19.2771 17.2387C18.0758 16.2483 16.9778 15.2837 16.2344 14.4846C15.8677 14.0904 15.551 13.6986 15.3591 13.3382C15.2634 13.1585 15.175 12.9434 15.1507 12.711C15.1248 12.4635 15.1713 12.1679 15.3848 11.9139C15.6401 11.6099 15.9132 11.3542 16.1584 11.1333C16.2205 11.0773 16.2796 11.0247 16.3361 10.9743C16.5136 10.816 16.6657 10.6804 16.8072 10.5364C17.1515 10.186 17.3189 9.89771 17.3189 9.48125C17.3189 8.54454 16.5174 7.76125 15.498 7.76125Z

    M14.3876 13.798C14.6523 14.102 14.6205 14.5631 14.3166 14.8278L5.26851 22.711C4.96462 22.9758 4.5037 22.944 4.23902 22.64C3.97435 22.336 4.00613 21.875 4.31002 21.6102L13.3581 13.727C13.662 13.4622 14.1229 13.494 14.3876 13.798Z

    M9.35 19.1532
    L21.666 19.1532  
    L23.47 20.5547
    L7.74 20.5547
    Z"/>
</svg>
