<svg viewBox="0 0 29 29" xmlns="http://www.w3.org/2000/svg">
<path d="M14.1797 5.8421C12.9169 5.8421 11.9241 6.83397 11.9241 8.02012C11.9241 8.5288 11.5086 8.94117 10.996 8.94117C10.4835 8.94117 10.068 8.5288 10.068 8.02012C10.068 5.78313 11.9259 4 14.1797 4C16.4335 4 18.2914 5.78313 18.2914 8.02012C18.2914 9.20434 17.7456 10.0022 17.1443 10.6278C16.9224 10.8587 16.6723 11.0864 16.4432 11.2951C16.3803 11.3524 16.3189 11.4083 16.2601 11.4624C16.0439 11.6615 15.8423 11.8545 15.6566 12.0584C15.7829 12.3009 16.0464 12.6564 16.4693 13.1211C17.303 14.0372 18.5838 15.193 20.0624 16.4392C21.5337 17.6793 23.1698 18.9833 24.6984 20.1939C24.9104 20.3618 25.1206 20.5281 25.328 20.6922C26.6093 21.706 27.7872 22.638 28.6692 23.3739C29.0615 23.7013 29.1122 24.2823 28.7823 24.6716C28.4525 25.061 27.8671 25.1113 27.4748 24.7839C26.613 24.0649 25.4576 23.1506 24.1734 22.1345C23.9656 21.9701 23.7545 21.8031 23.5407 21.6338C22.0122 20.4232 20.3562 19.1036 18.8609 17.8433C17.3729 16.5891 16.0127 15.3677 15.0918 14.3558C14.6376 13.8566 14.2454 13.3604 14.0076 12.9041C13.8891 12.6765 13.7796 12.4042 13.7495 12.11C13.7174 11.7965 13.775 11.4222 14.0394 11.1005C14.3557 10.7156 14.694 10.3917 14.9977 10.1121C15.0746 10.0412 15.1478 9.97452 15.2178 9.91074C15.4377 9.7103 15.6261 9.53858 15.8013 9.35626C16.2278 8.91258 16.4353 8.54747 16.4353 8.02012C16.4353 6.83397 15.4424 5.8421 14.1797 5.8421Z

M12.1072 14.1782C12.4351 14.5631 12.3957 15.1468 12.0192 15.482L1.49792 24.7728C1.12139 25.108 0.550296 25.0678 0.22235 24.6829C-0.105597 24.2981 -0.0662112 23.7144 0.31032 23.3792L10.8316 14.0883C11.2081 13.7531 11.7792 13.7934 12.1072 14.1782Z

M4.45032 20.2886H24.5496V22.0416H4.45032V20.2886Z"/>
</svg>
