<svg viewBox="0 0 29 21" xmlns="http://www.w3.org/2000/svg">
<path d="M14.1797 1.8421C12.9169 1.8421 11.9241 2.83397 11.9241 4.02012C11.9241 4.5288 11.5086 4.94117 10.996 4.94117C10.4835 4.94117 10.068 4.5288 10.068 4.02012C10.068 1.78313 11.9259 0 14.1797 0C16.4335 0 18.2914 1.78313 18.2914 4.02012C18.2914 5.20434 17.7456 6.00224 17.1443 6.62781C16.9224 6.85867 16.6723 7.08644 16.4432 7.29509C16.3803 7.35242 16.3189 7.4083 16.2601 7.46241C16.0439 7.6615 15.8423 7.85452 15.6566 8.05842C15.7829 8.30088 16.0464 8.65642 16.4693 9.12108C17.303 10.0372 18.5838 11.193 20.0624 12.4392C21.5337 13.6793 23.1698 14.9833 24.6984 16.1939C24.9104 16.3618 25.1206 16.5281 25.328 16.6922C26.6093 17.706 27.7872 18.638 28.6692 19.3739C29.0615 19.7013 29.1122 20.2823 28.7823 20.6716C28.4525 21.061 27.8671 21.1113 27.4748 20.7839C26.613 20.0649 25.4576 19.1506 24.1734 18.1345C23.9656 17.9701 23.7545 17.8031 23.5407 17.6338C22.0122 16.4232 20.3562 15.1036 18.8609 13.8433C17.3729 12.5891 16.0127 11.3677 15.0918 10.3558C14.6376 9.8566 14.2454 9.36045 14.0076 8.90408C13.8891 8.67653 13.7796 8.4042 13.7495 8.10996C13.7174 7.79654 13.775 7.42218 14.0394 7.1005C14.3557 6.71559 14.694 6.39174 14.9977 6.11206C15.0746 6.0412 15.1478 5.97452 15.2178 5.91074C15.4377 5.7103 15.6261 5.53858 15.8013 5.35626C16.2278 4.91258 16.4353 4.54747 16.4353 4.02012C16.4353 2.83397 15.4424 1.8421 14.1797 1.8421Z

M12.1072 10.1782C12.4351 10.5631 12.3957 11.1468 12.0192 11.482L1.49792 20.7728C1.12139 21.108 0.550296 21.0678 0.22235 20.6829C-0.105597 20.2981 -0.0662112 19.7144 0.31032 19.3792L10.8316 10.0883C11.2081 9.75311 11.7792 9.79336 12.1072 10.1782Z

M4.45032 16.2886H24.5496V18.0416H4.45032V16.2886Z"/>
</svg>
